<?xml version="1.0" encoding="utf-8"?>
<!-- Generator: Adobe Illustrator 15.1.0, SVG Export Plug-In . SVG Version: 6.00 Build 0)  -->
<!DOCTYPE svg PUBLIC "-//W3C//DTD SVG 1.1//EN" "http://www.w3.org/Graphics/SVG/1.1/DTD/svg11.dtd">
<svg version="1.1" xmlns="http://www.w3.org/2000/svg" xmlns:xlink="http://www.w3.org/1999/xlink" x="0px" y="0px"
	 width="595.28px" height="841.89px" viewBox="0 0 595.28 841.89" enable-background="new 0 0 595.28 841.89" xml:space="preserve">
<g id="Base">
	<path fill="none" stroke="#000000" stroke-miterlimit="10" d="M402.098,518.74H193.184c-10.176,0-18.425-8.25-18.425-18.426
		V323.149h245.764v177.165C420.522,510.49,412.274,518.74,402.098,518.74z"/>
</g>
<g id="D_pad">
	<path fill="none" stroke="#000000" stroke-miterlimit="10" d="M213.695,392.78h-14.178c-3.263,0-5.908-2.645-5.908-5.908v-11.225
		c0-3.263,2.645-5.908,5.908-5.908h14.178v-14.178c0-3.263,2.645-5.908,5.908-5.908h11.225c3.263,0,5.908,2.645,5.908,5.908v14.178
		h14.178c3.263,0,5.908,2.645,5.908,5.908v11.225c0,3.263-2.645,5.908-5.908,5.908h-14.178v14.179c0,3.263-2.645,5.908-5.908,5.908
		h-11.225c-3.263,0-5.908-2.645-5.908-5.908V392.78z"/>
</g>
<g id="buttons">
	<circle fill="none" stroke="#000000" stroke-miterlimit="10" cx="363.284" cy="356.174" r="13.181"/>
	<circle fill="none" stroke="#000000" stroke-miterlimit="10" cx="388.633" cy="381.544" r="13.181"/>
	<circle fill="none" stroke="#000000" stroke-miterlimit="10" cx="337.893" cy="381.519" r="13.181"/>
	<circle fill="none" stroke="#000000" stroke-miterlimit="10" cx="363.284" cy="406.604" r="13.181"/>
</g>
<g id="little_buttons">
	<circle fill="none" stroke="#000000" stroke-miterlimit="10" cx="297.357" cy="476.363" r="7.795"/>
	<circle fill="none" stroke="#000000" stroke-miterlimit="10" cx="320.035" cy="476.363" r="7.795"/>
	<circle fill="none" stroke="#000000" stroke-miterlimit="10" cx="274.68" cy="476.363" r="7.795"/>
</g>
</svg>
